<?xml version="1.0" encoding="UTF-8"?>
<!DOCTYPE svg PUBLIC "-//W3C//DTD SVG 1.1//EN" "http://www.w3.org/Graphics/SVG/1.1/DTD/svg11.dtd">
<svg xmlns="http://www.w3.org/2000/svg" version="1.1" width="1053px" height="269px" style="shape-rendering:geometricPrecision; text-rendering:geometricPrecision; image-rendering:optimizeQuality; fill-rule:evenodd; clip-rule:evenodd" xmlns:xlink="http://www.w3.org/1999/xlink">
<g><path style="opacity:0.997" fill="#8cc63e" d="M 816.5,5.5 C 836.833,5.5 857.167,5.5 877.5,5.5C 877.5,72.8333 877.5,140.167 877.5,207.5C 857.385,200.906 837.385,193.906 817.5,186.5C 816.5,126.17 816.167,65.837 816.5,5.5 Z"/></g>
<g><path style="opacity:0.995" fill="#e01a2b" d="M 735.5,39.5 C 754.5,39.5 773.5,39.5 792.5,39.5C 792.5,83.8333 792.5,128.167 792.5,172.5C 773.641,165.741 754.975,158.407 736.5,150.5C 735.5,113.506 735.167,76.506 735.5,39.5 Z"/></g>
<g><path style="opacity:0.893" fill="#013d7b" d="M 487.5,41.5 C 495.623,40.4657 499.956,43.9657 500.5,52C 500.077,55.2691 499.244,58.4358 498,61.5C 486.615,83.2262 471.615,102.226 453,118.5C 448.306,129.415 445.139,140.748 443.5,152.5C 444.124,154.754 445.457,156.421 447.5,157.5C 454.921,154.591 461.087,149.924 466,143.5C 472.276,133.558 478.943,123.892 486,114.5C 497.196,102.879 510.696,98.7124 526.5,102C 537.305,109.32 538.305,117.987 529.5,128C 518.295,135.588 506.129,137.755 493,134.5C 488.901,142.351 488.568,150.351 492,158.5C 497.206,162.842 503.04,163.675 509.5,161C 524.659,152.175 535.992,139.841 543.5,124C 543.833,123.833 544.167,123.667 544.5,123.5C 545.655,126.446 545.821,129.446 545,132.5C 538.834,143.322 531.334,153.156 522.5,162C 509.72,171.162 496.053,172.828 481.5,167C 474.296,161.753 471.129,154.586 472,145.5C 463.631,158.548 451.964,166.882 437,170.5C 432.681,170.499 429.681,168.499 428,164.5C 426.336,158.872 426.002,153.205 427,147.5C 412.979,169.51 394.146,175.344 370.5,165C 365.763,159.792 363.596,153.625 364,146.5C 353.12,165.19 336.953,173.023 315.5,170C 303.657,166.162 298.49,157.996 300,145.5C 293.274,157.904 283.274,166.237 270,170.5C 264.926,170.1 261.593,167.433 260,162.5C 259.364,154.731 259.697,147.064 261,139.5C 253.825,151.674 244.325,161.507 232.5,169C 225.937,171.895 220.77,170.395 217,164.5C 214.537,152.458 215.87,140.791 221,129.5C 223.675,123.837 226.009,118.17 228,112.5C 224.087,115.023 219.921,115.69 215.5,114.5C 210.288,125.098 203.955,134.932 196.5,144C 189.383,147.846 182.049,148.512 174.5,146C 169.548,154.619 162.881,161.619 154.5,167C 122.646,176.146 110.812,164.646 119,132.5C 123.953,117.881 133.453,107.381 147.5,101C 156.309,98.715 164.976,99.0484 173.5,102C 179.581,107.071 182.248,113.571 181.5,121.5C 181.772,127.078 180.772,132.411 178.5,137.5C 185.357,142.034 191.524,141.034 197,134.5C 201.341,127.821 205.175,120.821 208.5,113.5C 203.819,109.142 202.319,103.809 204,97.5C 207.71,93.4301 212.21,92.4301 217.5,94.5C 217.354,102.583 221.187,107.25 229,108.5C 233.215,105.299 237.715,102.466 242.5,100C 247.172,99.8325 251.839,100.166 256.5,101C 245.171,115.826 237.171,132.326 232.5,150.5C 232.998,152.664 234.164,154.331 236,155.5C 243.217,151.621 249.217,146.288 254,139.5C 259.692,128.619 265.525,117.785 271.5,107C 267.514,106.501 263.514,106.334 259.5,106.5C 259.178,104.278 259.845,102.444 261.5,101C 266.533,100.829 271.533,100.329 276.5,99.5C 280.402,89.7757 286.068,81.2757 293.5,74C 294.833,73.3333 296.167,72.6667 297.5,72C 301.887,71.774 306.221,71.274 310.5,70.5C 310.833,70.8333 311.167,71.1667 311.5,71.5C 303.402,79.7758 297.068,89.2758 292.5,100C 298.528,100.17 304.528,100.67 310.5,101.5C 309.352,103.149 308.019,104.649 306.5,106C 300.804,106.17 295.138,106.67 289.5,107.5C 283.874,119.42 279.374,131.753 276,144.5C 274.002,152.796 276.835,155.629 284.5,153C 287.63,150.872 290.463,148.372 293,145.5C 299.06,137.103 304.727,128.437 310,119.5C 320.931,103.854 335.764,98.0211 354.5,102C 362.687,106.219 365.187,112.719 362,121.5C 358.96,127.603 354.126,129.769 347.5,128C 344.009,126.179 342.843,123.346 344,119.5C 350.167,118.338 352.834,114.671 352,108.5C 351.044,107.106 349.711,106.439 348,106.5C 344.616,107.072 341.449,108.239 338.5,110C 328.269,118.297 321.436,128.797 318,141.5C 315.326,160.164 322.826,166.331 340.5,160C 355.085,149.332 366.252,135.832 374,119.5C 385.109,104.241 399.942,98.4074 418.5,102C 429.305,109.32 430.305,117.987 421.5,128C 410.295,135.588 398.129,137.755 385,134.5C 380.901,142.351 380.568,150.351 384,158.5C 388.091,162.305 392.924,163.472 398.5,162C 413.975,154.525 425.475,143.025 433,127.5C 439.477,105.883 448.144,85.2165 459,65.5C 463.122,59.7095 467.622,54.2095 472.5,49C 477.06,45.3864 482.06,42.8864 487.5,41.5 Z M 459.5,102.5 C 465.195,82.9425 474.195,65.1092 486.5,49C 488.677,47.7978 491.011,47.2978 493.5,47.5C 491.958,56.9231 488.458,65.5898 483,73.5C 476.06,83.9346 468.227,93.6013 459.5,102.5 Z M 410.5,106.5 C 415.989,106.504 417.822,109.171 416,114.5C 410.32,125.59 401.487,130.423 389.5,129C 389.043,128.586 388.709,128.086 388.5,127.5C 393.331,117.664 400.665,110.664 410.5,106.5 Z M 518.5,106.5 C 523.989,106.504 525.822,109.171 524,114.5C 518.32,125.59 509.487,130.423 497.5,129C 497.043,128.586 496.709,128.086 496.5,127.5C 501.331,117.664 508.665,110.664 518.5,106.5 Z M 162.5,107.5 C 167.703,107.539 171.036,110.039 172.5,115C 162.553,117.442 159.386,123.609 163,133.5C 164.141,135.609 165.641,137.442 167.5,139C 164.155,146.028 159.822,152.361 154.5,158C 150.204,161.982 145.204,163.315 139.5,162C 136.035,159.475 134.368,155.975 134.5,151.5C 136.885,135.562 143.885,122.062 155.5,111C 157.925,109.787 160.259,108.621 162.5,107.5 Z"/></g>
<g><path style="opacity:0.907" fill="#013d7b" d="M 133.5,48.5 C 138.833,48.9332 144.166,49.4332 149.5,50C 144.917,53.9123 141.083,58.4123 138,63.5C 122.293,90.9167 109.293,119.583 99,149.5C 96.9795,155.472 96.1461,161.472 96.5,167.5C 92.2172,168.492 87.8839,168.826 83.5,168.5C 83.728,163.325 82.8947,158.325 81,153.5C 74.2745,137.715 67.2745,122.049 60,106.5C 56.8516,98.389 54.5183,90.0556 53,81.5C 41.0321,104.772 30.6988,128.772 22,153.5C 20.3638,158.375 19.5305,163.375 19.5,168.5C 13.4908,168.666 7.49076,168.499 1.5,168C 17.673,130.157 35.0063,92.8239 53.5,56C 38.2589,55.6437 24.2589,59.6437 11.5,68C 8.60473,70.5571 6.10473,73.3905 4,76.5C 1.06351,74.6327 0.730178,72.2994 3,69.5C 8.60326,56.6142 18.4366,50.1142 32.5,50C 45.1623,49.5001 57.8289,49.3334 70.5,49.5C 67.9036,57.8222 68.0702,66.1555 71,74.5C 76.7232,89.6127 82.7232,104.613 89,119.5C 90.3333,124.167 91.6667,128.833 93,133.5C 105.059,106.381 117.393,79.3808 130,52.5C 130.69,50.6498 131.856,49.3164 133.5,48.5 Z"/></g>
<g><path style="opacity:0.99" fill="#8cc63e" d="M 653.5,66.5 C 673.5,66.5 693.5,66.5 713.5,66.5C 713.5,91.1667 713.5,115.833 713.5,140.5C 693.754,133.13 674.087,125.464 654.5,117.5C 653.501,100.513 653.167,83.5131 653.5,66.5 Z"/></g>
<g><path style="opacity:0.975" fill="#013d7b" d="M 646.5,131.5 C 648.199,131.34 649.866,131.506 651.5,132C 727.584,165.028 803.751,197.861 880,230.5C 909.938,208.9 939.604,186.9 969,164.5C 969.617,163.551 969.451,162.718 968.5,162C 962.45,158.649 956.784,154.815 951.5,150.5C 980.73,145.181 1010.06,140.515 1039.5,136.5C 1030.64,166.091 1020.97,195.424 1010.5,224.5C 1005.43,217.375 1000.6,210.041 996,202.5C 967.833,223.333 939.667,244.167 911.5,265C 884.167,265.667 856.833,265.667 829.5,265C 771.057,240.695 712.557,216.529 654,192.5C 620.915,216.964 588.082,241.797 555.5,267C 546.173,267.5 536.839,267.666 527.5,267.5C 527.333,252.83 527.5,238.163 528,223.5C 567.659,192.934 607.159,162.268 646.5,131.5 Z"/></g>
<g><path style="opacity:0.895" fill="#000000" d="M 19.5,208.5 C 25.5554,208.53 31.0554,210.197 36,213.5C 34.9472,221.312 31.4472,222.478 25.5,217C 22.438,216.259 19.438,216.425 16.5,217.5C 13.887,220.371 13.887,223.205 16.5,226C 21.4203,228.196 26.4203,230.196 31.5,232C 39.3453,239.852 39.3453,247.852 31.5,256C 21.312,261.018 11.6453,260.184 2.5,253.5C 3.25938,250.594 4.92605,248.594 7.5,247.5C 11.3892,249.861 15.5559,251.528 20,252.5C 27.3903,251.147 29.2236,247.314 25.5,241C 19.7683,238.817 14.1016,236.484 8.5,234C 2.48852,225.439 3.48852,217.772 11.5,211C 14.3102,210.218 16.9768,209.384 19.5,208.5 Z"/></g>
<g><path style="opacity:0.864" fill="#000000" d="M 116.5,214.5 C 118.833,214.5 121.167,214.5 123.5,214.5C 123.5,217.5 123.5,220.5 123.5,223.5C 126.5,223.5 129.5,223.5 132.5,223.5C 132.5,225.833 132.5,228.167 132.5,230.5C 129.5,230.5 126.5,230.5 123.5,230.5C 123.334,237.508 123.5,244.508 124,251.5C 125.756,252.548 127.59,252.548 129.5,251.5C 131.405,252.466 132.738,253.966 133.5,256C 128.133,260.095 122.466,260.428 116.5,257C 115.54,255.581 114.707,254.081 114,252.5C 113.5,245.174 113.334,237.841 113.5,230.5C 111.833,230.5 110.167,230.5 108.5,230.5C 108.5,228.5 108.5,226.5 108.5,224.5C 110.5,224.5 112.5,224.5 114.5,224.5C 114.851,221.097 115.518,217.763 116.5,214.5 Z"/></g>
<g><path style="opacity:0.874" fill="#000000" d="M 56.5,268.5 C 53.5,268.5 50.5,268.5 47.5,268.5C 49.3507,263.963 51.3507,259.463 53.5,255C 48.9702,244.774 44.3036,234.607 39.5,224.5C 43.2702,222.976 46.7702,223.309 50,225.5C 52.7433,231.985 55.7433,238.319 59,244.5C 61.5627,237.709 64.3961,231.042 67.5,224.5C 70.4212,223.593 73.4212,223.26 76.5,223.5C 70.1114,238.612 63.4448,253.612 56.5,268.5 Z"/></g>
<g><path style="opacity:0.881" fill="#000000" d="M 86.5,223.5 C 90.5138,223.334 94.5138,223.501 98.5,224C 100.874,224.848 102.874,226.181 104.5,228C 104.097,229.473 103.43,230.806 102.5,232C 99.0062,232.103 95.6728,231.27 92.5,229.5C 88.1113,230.606 87.1113,232.773 89.5,236C 93.9901,237.274 98.3234,238.941 102.5,241C 107.162,248.015 105.829,253.682 98.5,258C 90.7567,260.661 83.7567,259.494 77.5,254.5C 78.3485,252.129 80.0151,250.796 82.5,250.5C 86.0241,252.088 89.6908,252.588 93.5,252C 96.6992,250.321 97.0325,248.321 94.5,246C 90.0099,244.726 85.6766,243.059 81.5,241C 76.4396,233.271 78.1062,227.437 86.5,223.5 Z"/></g>
<g><path style="opacity:0.909" fill="#000000" d="M 148.5,223.5 C 163.366,221.402 170.366,227.736 169.5,242.5C 161.472,242.169 153.472,242.502 145.5,243.5C 146.163,247.341 148.163,250.175 151.5,252C 156.708,252.362 161.708,251.695 166.5,250C 170.379,253.92 169.379,256.587 163.5,258C 144.476,262.26 135.642,254.76 137,235.5C 139.019,229.65 142.852,225.65 148.5,223.5 Z M 153.5,229.5 C 157.704,230.036 160.371,232.369 161.5,236.5C 156.544,237.494 151.544,237.827 146.5,237.5C 146.744,232.927 149.078,230.26 153.5,229.5 Z"/></g>
<g><path style="opacity:0.881" fill="#000000" d="M 176.5,223.5 C 180.287,222.814 183.454,223.814 186,226.5C 192.701,221.911 198.701,222.578 204,228.5C 205.518,226.652 207.351,225.152 209.5,224C 220.682,221.154 226.849,225.32 228,236.5C 228.5,243.826 228.666,251.159 228.5,258.5C 225.167,258.5 221.833,258.5 218.5,258.5C 218.666,250.16 218.5,241.827 218,233.5C 215.068,228.889 211.735,228.555 208,232.5C 207.5,241.16 207.334,249.827 207.5,258.5C 204.167,258.5 200.833,258.5 197.5,258.5C 197.666,249.827 197.5,241.16 197,232.5C 193.363,228.404 190.03,228.737 187,233.5C 186.5,241.827 186.334,250.16 186.5,258.5C 183.167,258.5 179.833,258.5 176.5,258.5C 176.5,246.833 176.5,235.167 176.5,223.5 Z"/></g>
<g><path style="opacity:0.881" fill="#000000" d="M 241.5,223.5 C 245.514,223.334 249.514,223.501 253.5,224C 255.874,224.848 257.874,226.181 259.5,228C 259.097,229.473 258.43,230.806 257.5,232C 254.006,232.103 250.673,231.27 247.5,229.5C 243.111,230.606 242.111,232.773 244.5,236C 248.99,237.274 253.323,238.941 257.5,241C 262.162,248.015 260.829,253.682 253.5,258C 245.757,260.661 238.757,259.494 232.5,254.5C 233.348,252.129 235.015,250.796 237.5,250.5C 241.024,252.088 244.691,252.588 248.5,252C 251.699,250.321 252.033,248.321 249.5,246C 245.01,244.726 240.677,243.059 236.5,241C 231.44,233.271 233.106,227.437 241.5,223.5 Z"/></g>
</svg>
